<mxfile host="app.diagrams.net" modified="2023-06-19T12:20:01.292Z" agent="Mozilla/5.0 (Macintosh; Intel Mac OS X 10_15_7) AppleWebKit/605.1.15 (KHTML, like Gecko) Version/15.6.1 Safari/605.1.15" version="21.5.0" etag="H4XaLLHeHj40kysgo7ye" type="github">
  <diagram name="Page-1" id="7f8n25Y1V4csf1rpPxrP">
    <mxGraphModel>
      <root>
        <mxCell id="0" />
        <mxCell id="1" parent="0" />
      </root>
    </mxGraphModel>
  </diagram>
</mxfile>
